<?xml version="1.0" encoding="iso-8859-1"?>
<!-- Uploaded to: SVG Repo, www.svgrepo.com, Generator: SVG Repo Mixer Tools -->
<svg fill="#000000" height="800px" width="800px" version="1.1" id="Layer_1" xmlns="http://www.w3.org/2000/svg" xmlns:xlink="http://www.w3.org/1999/xlink" 
	 viewBox="0 0 512 512" xml:space="preserve">
<g>
	<g>
		<path d="M417.634,407.025L238.221,96.27c-1.555-2.694-4.428-4.353-7.539-4.353s-5.984,1.66-7.539,4.353l-37.049,64.169
			c-2.404,4.164-0.977,9.488,3.186,11.892c4.166,2.404,9.489,0.977,11.892-3.186l29.51-51.111l164.336,284.638H66.345
			l120.79-209.215c2.404-4.164,0.977-9.488-3.186-11.892c-4.167-2.405-9.49-0.979-11.892,3.186L43.726,407.025
			c-1.555,2.693-1.555,6.013,0,8.706c1.555,2.693,4.428,4.353,7.539,4.353h358.83c3.111,0,5.984-1.66,7.539-4.353
			C419.19,413.037,419.19,409.718,417.634,407.025z"/>
	</g>
</g>
<g>
	<g>
		<path d="M343.612,205.284l-15.663-0.749c-4.787-0.224-8.882,3.476-9.112,8.28c-0.229,4.802,3.479,8.881,8.281,9.111l15.663,0.749
			c0.142,0.007,0.282,0.01,0.423,0.01c4.617,0,8.466-3.628,8.688-8.29C352.122,209.593,348.414,205.514,343.612,205.284z"/>
	</g>
</g>
<g>
	<g>
		<path d="M503.71,212.938l-129.051-6.169c-4.805-0.233-8.882,3.476-9.112,8.28c-0.229,4.803,3.479,8.882,8.281,9.111l129.051,6.169
			c0.142,0.007,0.282,0.01,0.423,0.01c4.617,0,8.466-3.628,8.688-8.29C512.22,217.247,508.512,213.168,503.71,212.938z"/>
	</g>
</g>
<g>
	<g>
		<path d="M267.066,220.75c-1.497-4.568-6.418-7.058-10.982-5.562l-79.904,26.171c-4.57,1.496-7.061,6.413-5.565,10.983
			c1.203,3.669,4.61,5.998,8.273,5.998c0.897,0,1.812-0.14,2.71-0.435l79.904-26.171C266.072,230.237,268.563,225.32,267.066,220.75
			z"/>
	</g>
</g>
<g>
	<g>
		<path d="M107.098,270.807c-1.158-4.667-5.878-7.509-10.548-6.35L6.608,286.801c-4.666,1.16-7.509,5.881-6.349,10.548
			c0.984,3.962,4.535,6.609,8.441,6.609c0.695,0,1.401-0.084,2.106-0.259l89.942-22.344
			C105.415,280.195,108.258,275.473,107.098,270.807z"/>
	</g>
</g>
<g>
	<g>
		<path d="M503.711,259.588l-148.067-7.08c-4.781-0.23-8.882,3.478-9.112,8.28c-0.23,4.803,3.476,8.882,8.28,9.112l148.067,7.081
			c0.142,0.007,0.282,0.01,0.423,0.01c4.617,0,8.466-3.628,8.688-8.29C512.221,263.897,508.513,259.818,503.711,259.588z"/>
	</g>
</g>
<g>
	<g>
		<path d="M435.238,302.975l-51.885-2.482c-4.788-0.238-8.882,3.478-9.112,8.28c-0.23,4.803,3.476,8.882,8.28,9.112l51.886,2.482
			c0.142,0.007,0.282,0.01,0.423,0.01c4.617,0,8.466-3.628,8.688-8.29C443.747,307.283,440.041,303.204,435.238,302.975z"/>
	</g>
</g>
<g>
	<g>
		<path d="M503.711,306.25l-41.77-1.998c-4.801-0.237-8.882,3.478-9.112,8.28c-0.23,4.803,3.476,8.882,8.28,9.112l41.77,1.998
			c0.142,0.007,0.282,0.01,0.423,0.01c4.617,0,8.466-3.628,8.688-8.29C512.221,310.559,508.513,306.48,503.711,306.25z"/>
	</g>
</g>
<g>
	<g>
		<path d="M503.711,352.9l-92.663-4.433c-4.782-0.233-8.882,3.476-9.112,8.28c-0.23,4.802,3.476,8.882,8.28,9.112l92.663,4.433
			c0.142,0.007,0.282,0.01,0.423,0.01c4.617,0,8.466-3.628,8.688-8.29C512.221,357.209,508.513,353.129,503.711,352.9z"/>
	</g>
</g>
<g>
	<g>
		<path d="M344.222,334.539l-165.757-64.218c-4.485-1.736-9.525,0.49-11.262,4.973c-1.738,4.483,0.489,9.526,4.973,11.263
			l165.757,64.218c1.034,0.4,2.097,0.59,3.142,0.59c3.49,0,6.783-2.114,8.119-5.562
			C350.932,341.319,348.706,336.275,344.222,334.539z"/>
	</g>
</g>
</svg>