<?xml version="1.0" encoding="utf-8"?>
<!-- Generator: Adobe Illustrator 27.7.0, SVG Export Plug-In . SVG Version: 6.00 Build 0)  -->
<svg version="1.1" id="Layer_1" xmlns="http://www.w3.org/2000/svg" xmlns:xlink="http://www.w3.org/1999/xlink" x="0px" y="0px"
	 viewBox="0 0 796.6 144.8" style="enable-background:new 0 0 796.6 144.8;" xml:space="preserve">
<g>
	<g>
		<path d="M101.9,28.9v49L91,88.8l19.9,41.3H95L76.6,90.9H30.1v39.2H15.4V15.9h73.4L101.9,28.9z M30.1,77.9h57.1v-49H30.1V77.9z"/>
		<path d="M120.7,115.4v-62l14.7-14.7H199v50.6h-63.6V117h60.4v13.1h-60.4L120.7,115.4z M135.3,77.9l49.6-1.6V51.8h-49.6V77.9z"/>
		<path d="M217.8,130.1V30.5l14.7-14.7h39.2v13.1h-39.2v31h39.2V73h-39.2v57.1H217.8z"/>
		<path d="M284.7,130.1V53.4l14.7-14.7h49v13.1h-49v78.3H284.7z"/>
		<path d="M359.7,115.4V77.9l65.3-1.6V51.8h-62V38.7h62l14.7,14.7v76.7h-65.3L359.7,115.4z M374.4,90.9V117H425V87.7L374.4,90.9z"/>
		<path d="M458.5,115.4v-62l14.7-14.7h60.4v13.1h-60.4V117h60.4v13.1h-60.4L458.5,115.4z"/>
		<path d="M548.2,24l14.7-8.2V42h42.4V55h-42.4v62h42.4v13.1h-42.4l-14.7-14.7V24z"/>
		<path d="M618.4,27.3V14.2h14.7v13.1H618.4z M618.4,130.1V38.7h14.7v91.4H618.4z"/>
		<path d="M652.7,130.1V15.9h14.7v114.2H652.7z"/>
		<path d="M686.1,115.4v-62l14.7-14.7h63.6v50.6h-63.6V117h60.4v13.1h-60.4L686.1,115.4z M700.8,77.9l49.6-1.6V51.8h-49.6V77.9z"/>
	</g>
</g>
</svg>
