<?xml version="1.0" encoding="utf-8"?>
<!-- Generator: Adobe Illustrator 27.7.0, SVG Export Plug-In . SVG Version: 6.00 Build 0)  -->
<svg version="1.1" id="Layer_2" xmlns="http://www.w3.org/2000/svg" xmlns:xlink="http://www.w3.org/1999/xlink" x="0px" y="0px"
	 viewBox="0 0 796.6 144.8" style="enable-background:new 0 0 796.6 144.8;" xml:space="preserve">
<g>
	<g>
		<path d="M113.7,31.2v47l-11.5,13.3l18.3,43.1H96.8l-14.7-37H51.4v37H29.9V12.4h67.5L113.7,31.2z M51.4,77.3h40.9V32.6H51.4V77.3z"
			/>
		<path d="M127.8,116.1V55.3l16-18.5h59.7v54.8h-54.2v22h51.2v21h-56.6L127.8,116.1z M149.3,78l35.4-1.7V56.4h-35.4V78z"/>
		<path d="M218.2,134.6V30.9l16-18.5h37.5V34h-32.1v25.5h32.1v21h-32.1v54.1H218.2z"/>
		<path d="M282.7,134.6V56l16.7-19.2H343v22.4h-38.8v75.4H282.7z"/>
		<path d="M352.4,115.4V78.7l55.1-1.7V57.8h-52.1v-21h56.9L429,56v78.6h-60L352.4,115.4z M373.9,94.1v20.3h33.6V90.6L373.9,94.1z"/>
		<path d="M443.6,116.1V55.3l16-18.5h54.2v22.4h-48.8v53.1h48.8v22.4h-54.2L443.6,116.1z"/>
		<path d="M525.7,21.1l21.5-8.7v27.9h32.7v21h-32.7v52.4h32.7v21h-37.5l-16.7-19.2V21.1z"/>
		<path d="M590.8,26.7V9.2h21.5v17.5H590.8z M590.8,134.6V36.8h21.5v97.8H590.8z"/>
		<path d="M628,134.6V12.4h21.5v122.2H628z"/>
		<path d="M664.2,116.1V55.3l16-18.5h59.7v54.8h-54.2v22h51.2v21h-56.6L664.2,116.1z M685.7,78l35.4-1.7V56.4h-35.4V78z"/>
	</g>
</g>
</svg>
