<?xml version="1.0" encoding="utf-8"?>
<!-- Generator: Adobe Illustrator 27.7.0, SVG Export Plug-In . SVG Version: 6.00 Build 0)  -->
<svg version="1.1" id="emoji" xmlns="http://www.w3.org/2000/svg" xmlns:xlink="http://www.w3.org/1999/xlink" x="0px" y="0px"
	 viewBox="0 0 72 72" style="enable-background:new 0 0 72 72;" xml:space="preserve">
<style type="text/css">
	.st0{fill:#61B2E4;}
	.st1{fill:#FFFFFF;}
	.st2{fill:none;stroke:#000000;stroke-width:2;stroke-miterlimit:10;}
	.st3{fill:none;stroke:#000000;stroke-width:2;stroke-linecap:round;stroke-linejoin:round;}
</style>
<g id="color">
	<path class="st0" d="M8.5,4.8h55c2.1,0,3.7,1.7,3.7,3.7v55c0,2.1-1.7,3.7-3.7,3.7h-55c-2.1,0-3.7-1.7-3.7-3.7v-55
		C4.8,6.4,6.4,4.8,8.5,4.8z"/>
	<rect x="16" y="28.5" class="st1" width="7.5" height="26.2"/>
	<circle class="st1" cx="19.8" cy="18.5" r="4.4"/>
	<path class="st1" d="M44.1,34.8c-2.8,0-5,1.5-5,5.6v14.4h-7.5V28.5h7.5v2.8h0c1.9-2.2,4.6-3.4,7.5-3.4c5.5,0,10,4.1,10,11.2v15.6
		h-7.5V40.4C49.1,36.2,46.9,34.8,44.1,34.8"/>
</g>
<g id="line">
	<path class="st2" d="M8.5,4.8h55c2.1,0,3.7,1.7,3.7,3.7v55c0,2.1-1.7,3.7-3.7,3.7h-55c-2.1,0-3.7-1.7-3.7-3.7v-55
		C4.8,6.4,6.4,4.8,8.5,4.8z"/>
	<rect x="16" y="28.5" class="st3" width="7.5" height="26.2"/>
	<circle class="st3" cx="19.8" cy="18.5" r="4.4"/>
	<path class="st3" d="M44.1,34.8c-2.8,0-5,1.5-5,5.6v14.4h-7.5V28.5h7.5v2.8h0c1.9-2.2,4.6-3.4,7.5-3.4c5.5,0,10,4.1,10,11.2v15.6
		h-7.5V40.4C49.1,36.2,46.9,34.8,44.1,34.8"/>
</g>
</svg>
