<?xml version="1.0" encoding="utf-8"?>
<!-- Generator: Adobe Illustrator 27.7.0, SVG Export Plug-In . SVG Version: 6.00 Build 0)  -->
<svg version="1.1" id="Layer_1" xmlns="http://www.w3.org/2000/svg" xmlns:xlink="http://www.w3.org/1999/xlink" x="0px" y="0px"
	 viewBox="0 0 889 782" enable-background="new 0 0 889 782" xml:space="preserve">
<path  d="M428.25,704.67c0,1.4-1.4,1.4-1.4,2.8c11.19,8.39,20.98,16.78,32.17,25.17c1.4,0,1.4-1.4,2.8-2.8
	C450.63,721.45,439.44,713.06,428.25,704.67z M173.71,576c11.19,6.99,12.59,13.99,2.8,22.38c-2.8,1.4-5.59,2.8-9.79,6.99
	c12.59,8.39,22.38,15.38,33.57,22.38c6.99-6.99,11.19-16.78,16.78-18.18c5.59,0,12.59,8.39,19.58,11.19
	c8.39,4.2,9.79,9.79,5.59,16.78c-2.8,5.59-2.8,9.79,4.2,12.59c29.37,13.99,58.74,29.37,88.11,43.36
	c-13.99-13.99-29.37-27.97-44.75-43.36c4.2-1.4,9.79-1.4,19.58-2.8c-18.18-9.79-33.57-23.78-50.35-25.17
	c-18.18-1.4-25.17-12.59-37.76-20.98c-11.19-8.39-20.98-18.18-36.36-20.98c-8.39-1.4-15.38-9.79-22.38-15.38
	c-2.8-1.4-5.59-1.4-8.39-2.8c-1.4,1.4-1.4,2.8-1.4,4.2C159.73,570.4,165.32,574.6,173.71,576z M49.24,324.26
	c2.8,4.2,4.2,6.99,5.59,9.79c5.59-1.4,11.19-2.8,16.78-4.2c0-2.8-1.4-5.59-2.8-9.79c8.39-5.59,12.59,0,18.18,4.2
	c2.8,2.8,6.99,4.2,11.19,5.59c4.2,1.4,8.39-1.4,11.19,0c6.99,2.8,18.18,2.8,13.99,15.38c-6.99,22.38-12.59,29.37-26.57,23.78
	c-11.19-4.2-22.38-11.19-34.96-15.38c-5.59-2.8-12.59-2.8-19.58-4.2c-2.8,19.58-4.2,37.76-5.59,55.94
	c-1.4,13.99-4.2,27.97-4.2,41.96c0,6.99,2.8,16.78,5.59,23.78c2.8,5.59,6.99,8.39,15.38,4.2c11.19-5.59,22.38-9.79,33.57-13.99
	c2.8,0,4.2-2.8,5.59-4.2c8.39-20.98,15.38-43.36,23.78-64.33c8.39-23.78,19.58-46.15,26.57-69.93c4.2-15.38,5.59-32.17,4.2-47.55
	c-2.8-20.98-6.99-41.96-11.19-61.54c-2.8-16.78-13.99-27.97-30.77-36.36c-11.19-5.59-19.58-4.2-30.77,2.8
	c-9.79,6.99-16.78,13.99-19.58,25.17c-9.79,29.37-16.78,58.74-16.78,89.51c0,11.19,1.4,23.78,2.8,37.76
	C43.64,329.85,46.44,328.45,49.24,324.26z M810.06,160.63c-19.58,33.57-47.55,60.14-75.52,86.71c-6.99,5.59-13.99,9.79-20.98,13.99
	c-2.8,1.4-6.99,1.4-9.79,2.8c0-2.8,0-6.99,1.4-9.79c8.39-9.79,16.78-19.58,26.57-27.97c27.97-22.38,50.35-48.95,71.33-78.32
	c13.99-20.98,18.18-43.36,16.78-68.53c0-8.39-5.59-12.59-12.59-13.99c-12.59-2.8-25.17-4.2-39.16-5.59c5.59-2.8,9.79-4.2,13.99-5.59
	c0-1.4,0-1.4,0-2.8c-11.19,0-20.98-1.4-32.17-1.4c-12.59,0-26.57-1.4-39.16-1.4c-20.98,0-40.56,2.8-60.14,11.19
	c-12.59,5.59-27.97,8.39-41.96,12.59c-1.4,0-4.2,0-5.59-1.4c0-1.4,0-4.2,1.4-5.59c4.2-4.2,8.39-6.99,12.59-9.79
	c9.79-5.59,19.58-11.19,29.37-16.78c-22.38-16.78-41.96-15.38-58.74,2.8c-8.39,8.39-13.99,19.58-22.38,27.97
	c-5.59,5.59-13.99,12.59-20.98,16.78c-26.57,15.38-53.15,32.17-81.12,46.15c-11.19,5.59-23.78,6.99-36.36,9.79
	c-61.54,15.38-121.68,36.36-181.81,60.14c-11.19,4.2-20.98,15.38-30.77,25.17c-32.17,33.57-48.95,75.52-68.53,116.08
	c-9.79,20.98-18.18,43.36-27.97,64.33c-4.2,9.79-9.79,19.58-13.99,29.37c-2.8,8.39-5.59,18.18-8.39,27.97c1.4,0,5.59,1.4,8.39,1.4
	c16.78,1.4,34.96,2.8,51.75,4.2c43.36,5.59,83.91,19.58,123.07,37.76c40.56,18.18,81.12,37.76,121.68,57.34
	c5.59,2.8,11.19,4.2,18.18,5.59c6.99,1.4,11.19,5.59,11.19,12.59c-20.98,11.19-40.56-1.4-61.54-2.8c-1.4,0-2.8-1.4-4.2-1.4
	c-12.59,4.2-23.78,2.8-36.36-2.8c5.59,6.99,12.59,13.99,18.18,20.98c0,1.4-1.4,1.4-1.4,2.8c-2.8-1.4-6.99-2.8-13.99-4.2
	c5.59,4.2,8.39,6.99,11.19,9.79c-1.4,0-1.4,1.4-1.4,1.4c-6.99-2.8-12.59-4.2-18.18-6.99c4.2,5.59,6.99,11.19,11.19,16.78
	c-5.59,2.8-9.79,6.99-13.99,9.79c1.4,1.4,2.8,2.8,4.2,5.59c-16.78-5.59-30.77-11.19-47.55-16.78c6.99-11.19,13.99-20.98,20.98-30.77
	c-9.79-11.19,5.59-9.79,9.79-15.38c0,0,0,0,0-1.4c2.8-27.97-20.98-34.96-40.56-44.75c-18.18-9.79-36.36-16.78-55.94-23.78
	c-30.77-11.19-61.54-20.98-95.1-19.58c-15.38,1.4-29.37,0-43.36,1.4c-11.19,1.4-22.38,5.59-25.17,16.78
	c-2.8,12.59,1.4,23.78,11.19,33.57c12.59,12.59,25.17,19.58,41.96,19.58c5.59,0,11.19,4.2,16.78,6.99c4.2,1.4,8.39,1.4,11.19,2.8
	c-1.4-6.99-1.4-13.99-2.8-19.58c0-2.8-4.2-4.2-6.99-6.99c-5.59-2.8-9.79-6.99-15.38-11.19c0-1.4,1.4-1.4,1.4-2.8
	c53.15,32.17,106.29,64.33,163.63,97.9c-6.99-1.4-9.79-2.8-12.59-2.8c12.59,9.79,23.78,20.98,40.56,19.58
	c8.39,0,18.18,2.8,26.57,5.59c53.15,16.78,107.69,26.57,163.63,27.97c12.59,0,25.17-2.8,36.36-5.59c6.99-1.4,16.78-1.4,12.59-13.99
	c-1.4-2.8,5.59-11.19,11.19-13.99c6.99-5.59,6.99-11.19,4.2-18.18c-15.38-34.96-37.76-62.94-75.52-74.12
	c-25.17-6.99-48.95-16.78-72.73-23.78c-22.38-6.99-46.15-9.79-68.53-13.99c-13.99-2.8-27.97-8.39-41.96-11.19
	c-4.2,0-8.39,0-12.59-1.4c-2.8-1.4-5.59-4.2-8.39-6.99c2.8-2.8,6.99-5.59,9.79-5.59c23.78,2.8,46.15,6.99,69.93,11.19
	c18.18,2.8,36.36,5.59,54.54,8.39c2.8,0,5.59-1.4,6.99-1.4c-1.4-12.59-2.8-23.78-4.2-34.96c8.39-2.8,16.78-8.39,22.38-6.99
	c4.2,1.4,6.99,11.19,9.79,18.18c4.2,8.39,8.39,18.18,12.59,27.97c1.4,4.2,5.59,8.39,8.39,9.79c9.79,4.2,20.98,9.79,30.77,13.99
	c1.4,1.4,5.59,1.4,6.99,0c15.38-12.59,32.17-25.17,47.55-37.76c6.99-4.2,8.39-9.79,4.2-18.18c-6.99-11.19-8.39-25.17-5.59-37.76
	c1.4-8.39,0-15.38,1.4-22.38c1.4-15.38,2.8-29.37,6.99-43.36c5.59-13.99,26.57-23.78,44.75-19.58c-6.99,4.2-11.19,6.99-16.78,9.79
	c1.4,0,1.4,1.4,1.4,1.4c2.8-1.4,4.2-2.8,6.99-2.8c12.59-2.8,18.18-1.4,20.98,9.79c1.4,2.8-2.8,6.99-5.59,8.39
	c-6.99,2.8-13.99,5.59-20.98,11.19c8.39-1.4,18.18-4.2,27.97-6.99c0,1.4,1.4,2.8,1.4,4.2c-4.2,2.8-9.79,4.2-13.99,6.99
	c-4.2,2.8-12.59,1.4-8.39,11.19c0,0-2.8,2.8-5.59,4.2c-27.97,13.99-25.17,13.99-22.38,37.76c1.4,12.59,6.99,23.78,11.19,36.36
	c1.4,1.4,2.8,4.2,4.2,4.2c20.98-4.2,32.17,16.78,50.35,19.58c1.4,0,2.8,1.4,4.2,1.4c2.8,1.4,9.79,2.8,9.79,4.2
	c0,5.59,0,12.59-2.8,16.78c-2.8,5.59-9.79,9.79-13.99,13.99c20.98,25.17,34.96,25.17,64.33,13.99c2.8-1.4,4.2-2.8,5.59-2.8
	c29.37-8.39,57.34-15.38,86.71-22.38c1.4,0,1.4-1.4,2.8-4.2c-5.59,0-12.59,0-18.18,0c-6.99,0-13.99,2.8-20.98,1.4
	c-5.59,0-9.79-4.2-15.38-6.99c2.8-5.59,4.2-11.19,8.39-15.38c2.8-2.8,8.39-4.2,12.59-6.99c-13.99,1.4-27.97,15.38-40.56-5.59
	c0,1.4-1.4,1.4-1.4,2.8c1.4,4.2,2.8,8.39,4.2,12.59c4.2,11.19,1.4,23.78-5.59,32.17c-4.2,4.2-9.79,5.59-15.38,2.8
	c-12.59-5.59-15.38-9.79-12.59-25.17c4.2-18.18-5.59-34.96-20.98-39.16c0-2.8,0-5.59,0-9.79c-1.4,1.4-4.2,1.4-5.59,2.8
	c-8.39-25.17-1.4-48.95,4.2-72.73c4.2-16.78,4.2-33.57-1.4-48.95c-1.4-6.99-5.59-12.59-9.79-19.58c-1.4-4.2-4.2-6.99-5.59-12.59
	c16.78,5.59,33.57,11.19,37.76,34.96c9.79-8.39,16.78-13.99,23.78-20.98c12.59-12.59,23.78-25.17,34.96-39.16
	c4.2-5.59,6.99-11.19,11.19-16.78c22.38-30.77,47.55-61.54,68.53-92.31c9.79-13.99,15.38-32.17,22.38-47.55c-1.4,0-2.8-1.4-4.2-1.4
	C829.64,141.05,825.44,149.44,810.06,160.63z M176.51,271.11c11.19-16.78,22.38-34.96,34.96-50.35
	c11.19-12.59,23.78-29.37,39.16-36.36c37.76-15.38,76.92-25.17,116.08-37.76c34.96-11.19,69.93-22.38,104.89-33.57
	c6.99-2.8,15.38-6.99,22.38-11.19c5.59-4.2,12.59-9.79,19.58-12.59c25.17-9.79,46.15-22.38,61.54-46.15
	c6.99-11.19,20.98-22.38,33.57-25.17c18.18-4.2,37.76-4.2,55.94,6.99c15.38,9.79,30.77,16.78,48.95,11.19c2.8-1.4,6.99,0,11.19,0
	c18.18,1.4,37.76,4.2,55.94,5.59c0,0,1.4,0,2.8,0c34.96-6.99,75.52,26.57,61.54,69.93c0,2.8,0,5.59,0,8.39
	c4.2,16.78,2.8,33.57-6.99,48.95c-11.19,19.58-20.98,40.56-33.57,58.74c-12.59,18.18-27.97,33.57-40.56,51.75
	c-9.79,13.99-20.98,29.37-29.37,44.75c-9.79,16.78-26.57,30.77-39.16,46.15c-8.39,11.19-18.18,22.38-16.78,37.76
	c0,4.2,0,9.79,0,13.99c-1.4,5.59-2.8,9.79-4.2,15.38c-9.79-2.8-6.99,5.59-6.99,8.39c-4.2,22.38-1.4,26.57,19.58,34.96
	c9.79,2.8,34.96-11.19,36.36-20.98c-2.8-1.4-5.59-4.2-8.39-5.59c2.8-9.79,6.99-19.58,9.79-29.37c2.8,0,5.59,1.4,8.39,1.4
	c-1.4,9.79-1.4,18.18-2.8,26.57c4.2-1.4,9.79-1.4,15.38-2.8c1.4,1.4,2.8,4.2,4.2,5.59c-8.39,5.59-16.78,11.19-25.17,16.78
	c1.4,0,1.4,1.4,2.8,2.8c26.57-12.59,53.15-25.17,79.72-37.76c4.2,11.19,0,20.98-8.39,23.78c-13.99,5.59-29.37,11.19-43.36,16.78
	c-2.8,1.4-5.59,4.2-11.19,8.39c39.16-2.8,72.73-20.98,109.09-22.38c1.4,15.38-4.2,22.38-18.18,22.38c-6.99,0-15.38,0-22.38,1.4
	c-12.59,4.2-23.78,9.79-36.36,13.99c-9.79,2.8-18.18,6.99-26.57,11.19c15.38,2.8,29.37,2.8,43.36,2.8c18.18,0,37.76-2.8,55.94-1.4
	c5.59,0,11.19,6.99,16.78,11.19c-4.2,2.8-9.79,5.59-13.99,8.39c0,1.4-1.4,0-2.8,0c-12.59,0-26.57-4.2-37.76-1.4
	c-26.57,5.59-51.75,15.38-78.32,22.38c-9.79,2.8-19.58,4.2-29.37,6.99c-9.79,2.8-18.18,8.39-27.97,11.19
	c-15.38,5.59-27.97,2.8-39.16-8.39c-8.39-8.39-15.38-20.98-26.57-25.17c-13.99-6.99-20.98-16.78-27.97-27.97
	c-2.8-5.59-9.79-11.19-16.78-5.59c-15.38,12.59-27.97,25.17-43.36,39.16c8.39,8.39,18.18,16.78,26.57,25.17
	c16.78,15.38,29.37,34.96,34.96,57.34c4.2,15.38-6.99,30.77-22.38,34.96c-19.58,5.59-40.56,12.59-60.14,18.18
	c6.99,6.99,13.99,15.38,20.98,23.78c2.8,2.8,1.4,8.39,2.8,12.59c-4.2,0-9.79,1.4-12.59-1.4c-9.79-6.99-16.78-15.38-26.57-20.98
	c-19.58-11.19-39.16-23.78-62.94-23.78c-6.99,0-15.38-1.4-22.38-2.8c12.59,11.19,26.57,19.58,37.76,29.37
	c12.59,11.19,25.17,25.17,37.76,37.76c4.2,5.59,2.8,11.19-2.8,13.99c-2.8,1.4-8.39-1.4-12.59-2.8c-1.4,0-2.8-2.8-4.2-4.2
	c-32.17-22.38-64.33-46.15-97.9-68.53c-11.19-8.39-26.57-11.19-39.16-15.38c-1.4,4.2-1.4,4.2,0,5.59
	c20.98,19.58,41.96,37.76,61.54,57.34c6.99,6.99,12.59,15.38,15.38,23.78c1.4,4.2-2.8,9.79-5.59,15.38c-4.2-2.8-9.79-4.2-12.59-6.99
	c-8.39-8.39-13.99-19.58-22.38-26.57c-11.19-9.79-25.17-18.18-37.76-26.57c-15.38-9.79-32.17-18.18-47.55-26.57
	c-20.98-9.79-44.75-16.78-64.33-29.37c-13.99-9.79-29.37-15.38-43.36-23.78c-4.2-1.4-8.39-2.8-11.19-5.59
	c-18.18-25.17-44.75-37.76-69.93-53.15c-22.38-12.59-43.36-26.57-47.55-54.54c0-4.2,0-8.39-1.4-12.59
	c-5.59-13.99-12.59-26.57-15.38-40.56c-2.8-19.58,0-37.76,6.99-55.94c1.4-4.2,2.8-9.79,2.8-15.38c0-18.18,0-37.76-1.4-55.94
	c0-8.39-1.4-18.18-1.4-26.57c0-2.8,4.2-8.39,2.8-9.79c-8.39-11.19-2.8-22.38-1.4-32.17c1.4-9.79,4.2-18.18,5.59-27.97
	c2.8-26.57,18.18-46.15,37.76-62.94c19.58-15.38,61.54-1.4,68.53,15.38c5.59,12.59,9.79,26.57,12.59,40.56
	c4.2,22.38,5.59,44.75,8.39,69.93C163.92,285.1,168.12,276.71,176.51,271.11z"/>
<path  d="M268.81,266.92c-1.4-2.8-2.8-4.2-4.2-6.99c-9.79,8.39-18.18,16.78-29.37,25.17c5.59,2.8,8.39,4.2,13.99,8.39
	c-9.79,11.19-20.98,20.98-29.37,32.17c-5.59,8.39-8.39,19.58-12.59,29.37c-1.4-1.4-4.2-2.8-5.59-4.2c-1.4,1.4-1.4,1.4-1.4,1.4
	c5.59,15.38-8.39,19.58-13.99,27.97c-4.2,5.59-11.19,13.99-9.79,19.58c2.8,9.79-1.4,12.59-11.19,13.99
	c4.2,8.39,6.99,13.99,9.79,19.58c9.79-19.58,22.38-37.76,30.77-57.34c15.38-36.36,43.36-62.94,65.73-93.7
	c4.2-5.59,11.19-9.79,18.18-12.59c34.96-13.99,72.73-25.17,104.89-43.36c25.17-13.99,53.15-22.38,78.32-39.16
	c-2.8-1.4-4.2-1.4-6.99-2.8c5.59-2.8,9.79-5.59,15.38-8.39c-19.58-8.39-27.97,12.59-43.36,16.78c-1.4-2.8-1.4-6.99-2.8-9.79
	c-1.4,0-1.4,0-2.8,0c0,4.2-1.4,6.99-1.4,11.19c-8.39-4.2-8.39-5.59,0-15.38c-4.2-5.59-8.39-9.79-13.99-16.78
	c-4.2,9.79-6.99,16.78-9.79,25.17c0,1.4-1.4,2.8-1.4,4.2c9.79,12.59-1.4,13.99-8.39,15.38c-8.39,1.4-18.18,2.8-20.98,13.99
	c0,0-2.8,0-6.99,1.4c4.2-5.59,8.39-9.79,11.19-15.38c-1.4,0-1.4-1.4-2.8-1.4c-6.99,4.2-16.78,4.2-16.78,16.78
	c0,1.4-4.2,4.2-6.99,5.59c-4.2,2.8-8.39,5.59-13.99,8.39c0-4.2,0-8.39,0-12.59c-8.39,1.4-15.38,2.8-22.38,4.2
	c1.4,5.59,2.8,9.79,4.2,15.38c-13.99,4.2-19.58,2.8-22.38-6.99c-4.2-13.99-4.2-13.99,16.78-22.38c-4.2-2.8-8.39-5.59-11.19-6.99
	c-2.8,4.2-4.2,8.39-6.99,9.79c-9.79,8.39-12.59,15.38-9.79,29.37C291.19,257.13,280,262.72,268.81,266.92z"/>
<path  d="M583.49,191.39v1.4c20.98-5.59,40.56-12.59,61.54-19.58c-1.4-5.59-2.8-11.19-4.2-15.38
	C622.65,169.02,603.07,180.21,583.49,191.39z M710.76,180.21c13.99-1.4,18.18-13.99,22.38-25.17c8.39-20.98,2.8-43.36-15.38-57.34
	c-19.58-13.99-37.76-11.19-53.15,6.99c-13.99,16.78-12.59,34.96-6.99,54.54c0,2.8,2.8,6.99,4.2,9.79
	c4.2,11.19,12.59,16.78,25.17,15.38C693.98,183,700.97,181.6,710.76,180.21z M404.47,285.1c15.38-9.79,32.17-18.18,48.95-27.97
	c0,1.4,0,1.4,0,1.4c-30.77,22.38-61.54,46.15-92.31,68.53c-1.4-4.2,0-8.39,2.8-11.19c4.2-5.59,8.39-11.19,13.99-15.38
	c11.19-11.19,20.98-23.78,33.57-32.17c19.58-12.59,39.16-25.17,60.14-34.96c22.38-11.19,47.55-22.38,71.33-32.17
	c27.97-11.19,57.34-20.98,78.32-44.75c1.4-1.4,2.8-2.8,4.2-2.8c13.99-4.2,15.38-13.99,16.78-25.17
	c4.2-29.37,25.17-54.54,55.94-51.75c20.98,1.4,32.17,18.18,41.96,33.57c8.39,15.38,8.39,30.77,2.8,48.95
	c-6.99,20.98-18.18,33.57-37.76,39.16c-16.78,4.2-33.57,6.99-47.55-8.39c-6.99-6.99-12.59-8.39-19.58-6.99
	c-18.18,5.59-37.76,9.79-57.34,16.78s-39.16,15.38-58.74,22.38c-1.4,0-1.4-1.4-1.4-1.4c9.79-5.59,19.58-11.19,29.37-16.78
	C516.36,209.58,412.87,266.92,404.47,285.1z"/>
<path  d="M433.84,289.29c-12.59,9.79-20.98,18.18-32.17,23.78c-8.39,4.2-13.99,9.79-18.18,16.78
	c-6.99,9.79-13.99,20.98-6.99,34.96c2.8,5.59,0,12.59,0,19.58c0,5.59,1.4,11.19,1.4,18.18c5.59-4.2,8.39-5.59,11.19-6.99
	c12.59,8.39,27.97,8.39,44.75-33.57c-4.2,0-6.99,1.4-11.19,1.4c1.4-8.39-4.2-11.19-12.59-9.79c0-12.59-8.39-5.59-18.18-6.99
	C418.46,334.05,435.24,320.06,433.84,289.29z"/>
<path  d="M445.03,627.75c6.99,1.4,12.59,2.8,18.18,2.8c4.2,13.99,19.58,20.98,33.57,13.99c2.8-1.4,6.99-1.4,9.79,0
	c6.99,2.8,9.79,0,9.79-6.99c0-1.4-1.4-4.2-1.4-5.59c-6.99-12.59-16.78-23.78-16.78-41.96C478.6,602.57,456.22,605.37,445.03,627.75z
	"/>
<path  d="M740.13,86.5c-1.4-2.8-4.2-5.59-5.59-8.39c-1.4-2.8-4.2-5.59-2.8-6.99s4.2-2.8,6.99-4.2
	c8.39-1.4,18.18-2.8,26.57-4.2c2.8,0,4.2-2.8,6.99-4.2c0-1.4-1.4-1.4-1.4-2.8c-16.78,1.4-34.96,4.2-51.75,5.59
	c-4.2,0-6.99,0-11.19-1.4c-22.38-4.2-41.96-1.4-60.14,13.99c-5.59,4.2-11.19,6.99-18.18,9.79c-4.2,1.4-6.99,4.2-11.19,5.59
	c0,1.4,0,1.4,0,2.8c2.8,0,5.59,1.4,9.79,1.4c-5.59,9.79-11.19,16.78-16.78,26.57c11.19,4.2,16.78,2.8,20.98-6.99
	c5.59-13.99,13.99-25.17,25.17-33.57c20.98-16.78,48.95-9.79,68.53,2.8c2.8,2.8,6.99,4.2,9.79,6.99
	C738.73,87.9,740.13,86.5,740.13,86.5z"/>
<path  d="M342.94,437.54c-1.4-1.4-1.4-1.4-1.4-1.4c-15.38,4.2-23.78-6.99-34.96-13.99
	c-11.19-8.39-15.38-6.99-27.97,8.39c4.2,4.2,8.39,8.39,13.99,12.59c0,1.4-1.4,2.8-1.4,2.8c-5.59,0-9.79,0-13.99-1.4
	c1.4,9.79,4.2,19.58,5.59,29.37c5.59-2.8,9.79-6.99,15.38-8.39c4.2,0,8.39,4.2,12.59,6.99c2.8-1.4,8.39-4.2,13.99-6.99
	S340.14,450.13,342.94,437.54z"/>
<path  d="M266.02,538.24c-5.59-6.99-11.19-12.59-18.18-19.58c-4.2-4.2-9.79-6.99-13.99-8.39
	c-4.2-1.4-9.79,2.8-11.19,5.59c-1.4,1.4,0,8.39,1.4,11.19c5.59,5.59,5.59,11.19,1.4,18.18c-2.8,4.2-6.99,11.19-6.99,15.38
	c0,5.59,5.59,9.79,6.99,16.78c1.4,5.59,8.39,6.99,13.99,0c4.2-5.59,9.79-9.79,13.99-15.38c1.4-1.4,4.2-5.59,2.8-6.99
	C247.83,542.43,263.22,545.23,266.02,538.24z"/>
<path  d="M507.97,355.03c0-2.8,0-5.59,0-6.99c8.39,4.2,16.78,11.19,25.17,0c-4.2-6.99-8.39-13.99-19.58-11.19
	c-1.4,0-4.2,0-5.59-1.4c-5.59-4.2-11.19-8.39-18.18-12.59c-4.2,6.99-8.39,13.99-11.19,20.98v-1.4c-8.39,4.2-15.38,8.39-23.78,12.59
	c0,1.4,1.4,2.8,1.4,4.2c2.8,0,4.2,1.4,5.59,1.4c-1.4,4.2-2.8,8.39-4.2,12.59c0,1.4,4.2,2.8,5.59,4.2c1.4,0,4.2,0,5.59,0
	c8.39,4.2,16.78,2.8,18.18-5.59C488.39,356.42,499.58,357.82,507.97,355.03z"/>
<path  d="M612.86,212.37c-26.57,8.39-37.76,29.37-47.55,51.75c1.4,0,1.4,0,2.8,0c1.4,4.2,2.8,8.39,4.2,12.59
	c1.4,4.2,4.2,8.39,5.59,11.19c6.99-2.8,15.38-4.2,18.18-9.79c9.79-18.18,2.8-43.36,16.78-61.54
	C614.26,216.57,612.86,213.77,612.86,212.37z"/>
<path  d="M514.96,450.13c-4.2,0-8.39,0-12.59,1.4c-6.99,4.2-16.78,8.39-16.78,13.99c-1.4,11.19-2.8,25.17,8.39,33.57
	c9.79,6.99,30.77-5.59,32.17-20.98c0-2.8,0-6.99,1.4-9.79C531.74,451.53,533.14,451.53,514.96,450.13z"/>
<path  d="M653.42,315.87c0-4.2,1.4-6.99,1.4-8.39c-2.8-16.78-4.2-33.57-6.99-50.35c-1.4-9.79-4.2-18.18-8.39-26.57
	c-2.8-5.59-8.39-5.59-9.79,0c-4.2,16.78-8.39,34.96-9.79,51.75c-1.4,9.79,5.59,16.78,16.78,18.18
	C640.83,301.88,645.03,310.27,653.42,315.87z"/>
<path  d="M259.02,357.82c15.38,1.4,11.19,15.38,12.59,25.17c13.99-8.39,26.57-18.18,32.17-33.57
	c1.4-5.59,6.99-9.79,9.79-13.99c1.4-2.8,1.4-6.99,2.8-9.79c-4.2,0-8.39-2.8-12.59-1.4c-8.39,4.2-18.18,5.59-22.38,16.78
	C278.6,346.63,267.41,350.83,259.02,357.82z"/>
<path  d="M534.54,293.49c-2.8,1.4-4.2,1.4-5.59,1.4c-1.4-11.19-2.8-20.98-4.2-32.17c-1.4,0-2.8,0-2.8,0
	c1.4-8.39,15.38-12.59,5.59-23.78c-13.99,8.39-27.97,16.78-40.56,25.17c15.38,15.38,29.37,27.97,43.36,41.96
	C530.34,300.48,531.74,297.69,534.54,293.49z"/>
<path  d="M196.09,510.27c-4.2-2.8-6.99-5.59-9.79-8.39c-2.8-2.8-4.2-5.59-5.59-9.79c-26.57-1.4-26.57-1.4-46.15,16.78
	c0,1.4,1.4,1.4,1.4,2.8c4.2-2.8,6.99-5.59,11.19-6.99c8.39,5.59,11.19,16.78,6.99,25.17C169.52,527.05,186.3,527.05,196.09,510.27z"
	/>
<path  d="M598.87,416.56c-13.99,1.4-32.17,12.59-29.37,16.78c2.8,6.99,8.39,13.99,15.38,18.18
	c4.2,2.8,26.57-15.38,25.17-20.98C607.27,423.56,605.87,416.56,598.87,416.56z"/>
<path  d="M642.23,468.31c0-11.19-5.59-19.58-16.78-16.78c-8.39,2.8-15.38,11.19-19.58,19.58
	c-2.8,5.59,11.19,15.38,20.98,15.38C635.24,486.49,642.23,478.1,642.23,468.31z"/>
<path  d="M372.31,185.8c8.39,2.8,13.99,4.2,13.99-6.99c0-1.4,8.39-4.2,13.99-6.99c-8.39-2.8-16.78-2.8-20.98,5.59
	c-4.2,6.99-6.99,8.39-15.38,5.59c-12.59-2.8-23.78,1.4-32.17,12.59c8.39-2.8,9.79,18.18,22.38,5.59
	C361.12,195.59,375.1,201.18,372.31,185.8z"/>
<path  d="M446.43,427.75c0,0,2.8-1.4,6.99-4.2c-2.8-2.8-4.2-5.59-6.99-8.39c-5.59-6.99-11.19-5.59-15.38,1.4
	c-2.8,4.2-5.59,9.79-8.39,15.38c0,1.4,1.4,5.59,2.8,11.19c2.8,1.4,6.99,1.4,8.39,2.8c8.39,9.79,12.59,1.4,15.38-4.2
	C452.03,438.94,447.83,433.35,446.43,427.75z"/>
<path  d="M804.46,122.86c9.79-9.79,13.99-22.38,8.39-36.36c0,4.2-1.4,9.79-1.4,13.99c-1.4,0-1.4,0-2.8,0
	c-1.4-4.2-1.4-8.39-2.8-11.19c-15.38-1.4-13.99,11.19-16.78,16.78c-8.39,2.8-13.99,4.2-20.98,6.99
	C780.69,120.07,794.67,110.28,804.46,122.86z"/>
<path  d="M299.58,377.4c13.99-12.59,33.57-30.77,54.54-50.35C341.54,327.05,307.97,362.02,299.58,377.4z"/>
<path  d="M474.4,331.25c6.99-18.18,15.38-26.57,32.17-12.59c-4.2-15.38-6.99-16.78-22.38-12.59c-1.4,0-1.4,0-2.8,0
	c-4.2,1.4-9.79,2.8-13.99,2.8C471.61,317.26,473,324.26,474.4,331.25z"/>
<path  d="M286.99,222.16c-5.59-1.4-9.79-2.8-15.38-4.2c-6.99,9.79-13.99,20.98-20.98,32.17c1.4,1.4,1.4,1.4,2.8,2.8
	c5.59-4.2,16.78,0,13.99-13.99c0-2.8,5.59-5.59,8.39-8.39S282.8,226.36,286.99,222.16z"/>
<path  d="M569.5,129.86c6.99-5.59,12.59-11.19,19.58-15.38c2.8-2.8,5.59-4.2,8.39-5.59c2.8-2.8,4.2-5.59,5.59-8.39
	l-2.8-4.2c-2.8,1.4-5.59,1.4-8.39,4.2c-5.59,4.2-9.79,8.39-13.99,12.59s-8.39,9.79-12.59,13.99
	C568.11,128.46,569.5,129.86,569.5,129.86z"/>
<path  d="M485.59,187.2c13.99-8.39,26.57-18.18,40.56-26.57c-1.4-1.4-1.4-2.8-2.8-4.2
	c-13.99,8.39-26.57,16.78-40.56,25.17C482.79,183,484.19,184.4,485.59,187.2z"/>
<path  d="M235.25,290.69c-2.8-2.8-5.59-4.2-11.19-8.39c-1.4,8.39-2.8,15.38-2.8,22.38c1.4,0,1.4,1.4,2.8,1.4
	C226.86,301.88,231.05,296.29,235.25,290.69z"/>
<path  d="M309.37,194.19c5.59-1.4,11.19-1.4,16.78-2.8c-2.8-2.8-6.99-6.99-9.79-8.39c-2.8,0-5.59,4.2-8.39,6.99
	C307.97,191.39,309.37,192.79,309.37,194.19z"/>
<path  d="M470.21,152.23c-6.99,4.2-12.59,9.79-19.58,13.99c1.4,1.4,1.4,2.8,2.8,2.8c9.79,0,12.59-9.79,19.58-12.59
	C473,155.03,471.61,153.63,470.21,152.23z"/>
<path  d="M127.56,261.32c-8.39-13.99-19.58-22.38-36.36-23.78c-16.78-1.4-37.76,12.59-40.56,29.37
	c0,2.8,1.4,6.99,1.4,9.79c4.2-1.4,8.39-1.4,11.19-2.8c4.2-2.8,5.59-6.99,9.79-12.59c1.4,4.2,2.8,8.39,4.2,9.79
	c2.8,2.8,5.59,5.59,8.39,6.99c1.4,1.4,4.2,1.4,5.59,1.4c6.99,6.99,15.38,13.99,22.38,20.98c4.2,4.2,9.79,6.99,15.38,2.8
	c4.2-4.2,11.19-9.79,9.79-13.99C137.35,279.5,131.75,271.11,127.56,261.32c-1.4,1.4-1.4,2.8-1.4,4.2c-4.2-1.4-6.99-2.8-12.59-5.59
	c4.2,8.39,6.99,12.59,9.79,18.18c-5.59-4.2-16.78,2.8-19.58-8.39c0-2.8-4.2-4.2-9.79-6.99c5.59-2.8,12.59-6.99,20.98-12.59
	C119.17,255.73,123.36,258.53,127.56,261.32z"/>
<path  d="M717.75,160.63c9.79-13.99,2.8-43.36-12.59-51.75c-9.79-5.59-19.58-4.2-25.17,6.99
	c-8.39,15.38-9.79,32.17,0,47.55c1.4,1.4,1.4,2.8,2.8,2.8s2.8,1.4,2.8,1.4c-1.4-9.79-5.59-18.18-5.59-27.97
	c-1.4-6.99,1.4-15.38,4.2-22.38c2.8-6.99,13.99-5.59,19.58,1.4c5.59,6.99,8.39,36.36,2.8,43.36c-2.8,4.2-8.39,4.2-15.38,6.99
	C703.77,174.61,710.76,167.62,717.75,160.63z M663.21,142.44c-2.8-16.78,4.2-32.17,18.18-43.36c4.2-2.8,11.19-4.2,16.78-4.2
	c16.78,1.4,30.77,22.38,30.77,39.16c0,18.18-8.39,32.17-19.58,46.15c-8.39,1.4-15.38,2.8-22.38,4.2
	C668.8,176.01,664.61,159.23,663.21,142.44z"/>
</svg>
